<svg xmlns="http://www.w3.org/2000/svg" width="140" height="140" viewBox="0 0 140 140"><g transform="translate(-46.031 -218.266)"><path d="M46.031,218.266h60v60h-60Z" fill="#c9c9c9"/><path d="M178.531,333.266h-50a7.5,7.5,0,1,0,0,15h50a7.5,7.5,0,0,0,0-15Z" fill="#c9c9c9"/><path d="M178.531,303.266h-50a7.5,7.5,0,1,0,0,15h50a7.5,7.5,0,0,0,0-15Z" fill="#c9c9c9"/><path d="M126.031,278.266h55a5,5,0,0,0,4.38-7.41l-27.5-50a5.2,5.2,0,0,0-8.76,0l-27.5,50a5,5,0,0,0,4.38,7.41Z" fill="#c9c9c9"/><path d="M46.031,328.266a30,30,0,1,0,30-30A30,30,0,0,0,46.031,328.266Z" fill="#c9c9c9"/></g></svg>