<svg xmlns="http://www.w3.org/2000/svg" width="140" height="132.66" viewBox="0 0 140 132.66"><g transform="translate(-71.578 -420.968)"><path d="M211.578,553.578h-45v-70h45" fill="#c9c9c9"/><path d="M146.3,420.968H76.508a4.877,4.877,0,0,0-4.88,4.236,7.707,7.707,0,0,0-.05.874v120a7.5,7.5,0,0,0,7.45,7.55h12.55a7.5,7.5,0,0,0,7.5-7.5V534.043a12.773,12.773,0,0,1,12.266-12.913,12.5,12.5,0,0,1,12.734,12.5v12.5a7.5,7.5,0,0,0,7.5,7.5h12.5a7.5,7.5,0,0,0,7.5-7.5V426.071A5.218,5.218,0,0,0,146.3,420.968Zm-60.159,15.8a5.042,5.042,0,0,1,5.042-5.042H98.6a5.042,5.042,0,0,1,5.042,5.042v4.866A5.042,5.042,0,0,1,98.6,446.68H91.179a5.042,5.042,0,0,1-5.042-5.042Zm17.941,61.806a5,5,0,0,1-5,5h-7.5a5,5,0,0,1-5-5v-4.95a5,5,0,0,1,5-5h7.5a5,5,0,0,1,5,5Zm0-30a5,5,0,0,1-5,5h-7.5a5,5,0,0,1-5-5v-4.95a5,5,0,0,1,5-5h7.5a5,5,0,0,1,5,5Zm32.5,30a5,5,0,0,1-5,5h-7.5a5,5,0,0,1-5-5v-4.95a5,5,0,0,1,5-5h7.5a5,5,0,0,1,5,5Zm0-30a5,5,0,0,1-4.949,5.05h-7.551a5,5,0,0,1-5-5v-5a5,5,0,0,1,5-5h7.5a5,5,0,0,1,5,5Zm0-26.94a5.042,5.042,0,0,1-5.042,5.042H124.12a5.043,5.043,0,0,1-5.042-5.042v-4.866a5.042,5.042,0,0,1,5.042-5.042h7.416a5.042,5.042,0,0,1,5.042,5.042Z" fill="#c9c9c9"/></g></svg>