<svg xmlns="http://www.w3.org/2000/svg" width="139.875" height="139.998" viewBox="0 0 139.875 139.998"><g transform="translate(-251.209 -30.396)"><path d="M381.086,110.394a10,10,0,0,1-7.07-2.93l-52.93-52.93-52.93,52.93a10,10,0,0,1-14.14-14.14l60-60a10,10,0,0,1,14.14,0l60,60a10,10,0,0,1-7.07,17.07Z" fill="#d3d3d3"/><path d="M371.086,130.394a5,5,0,0,0-1.46-3.54l-45-45a5,5,0,0,0-7.071-.009l-.009.009-45,45a5,5,0,0,0-1.46,3.54v35a5,5,0,0,0,5,5h32.5a2.5,2.5,0,0,0,2.5-2.5v-22.5a10,10,0,0,1,20,0v22.5a2.5,2.5,0,0,0,2.5,2.5h32.5a5,5,0,0,0,5-5Z" fill="#d3d3d3"/></g></svg>